<?xml version="1.0" standalone="no"?><!DOCTYPE svg PUBLIC "-//W3C//DTD SVG 1.1//EN" "http://www.w3.org/Graphics/SVG/1.1/DTD/svg11.dtd"><svg t="1740466637772" class="icon" viewBox="0 0 1024 1024" version="1.1" xmlns="http://www.w3.org/2000/svg" p-id="14244" xmlns:xlink="http://www.w3.org/1999/xlink" width="200" height="200"><path d="M512 512m-384 0a384 384 0 1 0 768 0 384 384 0 1 0-768 0Z" fill="#C71D23" p-id="14245"></path><path d="M706.133333 469.333333h-218.026666c-10.666667 0-18.773333 8.106667-18.773334 18.773334v47.36c-0.426667 10.666667 8.106667 19.2 18.773334 19.2h132.693333c10.666667 0 19.2 8.106667 19.2 18.773333v9.386667c0 31.573333-25.6 57.173333-57.173333 57.173333H402.773333c-10.666667 0-19.2-8.533333-19.2-19.2v-180.053333c0-31.573333 25.6-56.746667 57.173334-56.746667h265.386666c10.24 0 18.773333-8.533333 18.773334-19.2V317.44a18.133333 18.133333 0 0 0-18.773334-18.773333h-265.386666C362.24 298.666667 298.666667 362.24 298.666667 440.746667v265.386666c0 10.666667 8.106667 19.2 18.773333 19.2H597.333333c70.4 0 128-57.6 128-128v-109.226666c0-10.666667-8.533333-18.773333-19.2-18.773334z" fill="#FFFFFF" p-id="14246"></path></svg>